<?xml version="1.0" encoding="utf-8"?>
<!-- Generator: Adobe Illustrator 25.1.0, SVG Export Plug-In . SVG Version: 6.00 Build 0)  -->
<svg version="1.1" id="Layer_1" xmlns="http://www.w3.org/2000/svg" xmlns:xlink="http://www.w3.org/1999/xlink" x="0px" y="0px"
	 viewBox="0 0 612 408" style="enable-background:new 0 0 612 408;" xml:space="preserve">
<style type="text/css">
	.st0{fill:#EAB713;}
	.st1{fill:#544332;}
	.st2{fill:#A3891F;}
	.st3{fill:#FFFFFF;}
	.st4{fill:#9BAD2D;}
	.st5{fill:#FCEEE0;}
	.st6{fill:#F092B0;}
	.st7{fill:#FFD6A8;}
</style>
<rect class="st0" width="612" height="408"/>
<g>
	<ellipse id="XMLID_209_" class="st1" cx="171.8" cy="90.5" rx="57" ry="14.2"/>
	<g>
		<ellipse class="st2" cx="173.4" cy="169.3" rx="62.4" ry="16.4"/>
		<path id="XMLID_210_" class="st3" d="M261.5,93.8c-3.2-3.4-8-5-14.5-5c-3,0-6.5,0.5-10,2.1c-5-17.3-31.4-21.4-55.1-21.4h-20.5
			c-26.1,0-55.9,5.6-55.9,27.5v24.9c0,26.1,33.9,47.5,60.1,47.5h12.2c16.5,0,36.2-8.6,48.4-21.5c0.3-0.2,0.5-0.4,0.7-0.5
			c2.8-2,6.9-4.1,11.5-6.2c12-5.9,27-13.2,27.6-26.4C266.6,105.7,266,98.5,261.5,93.8z M171.8,104.6c-31.5,0-57-6.3-57-14.2
			s25.5-14.2,57-14.2s57,6.3,57,14.2C228.7,98.3,203.2,104.6,171.8,104.6z M257.9,114.4c-0.4,8.1-12.1,14-22,18.9
			c1.3-3.6,2.1-7.3,2.1-11.2v-21.4c2.2-2.2,5.2-3.4,9.2-3.4c4.2,0,6.9,0.8,8.5,2.3C258.1,102.3,258.2,108.6,257.9,114.4z"/>
	</g>
</g>
<g>
	<ellipse class="st2" cx="435.1" cy="338.2" rx="50.2" ry="13.2"/>
	<g>
		<path id="XMLID_49_" class="st3" d="M442.4,231.4h-15.5c-19.7,0-42,4.2-42,20.7v49.5c0,19.7,25.5,35.8,45.2,35.8h9.2
			c19.7,0,45.2-16.1,45.2-35.8v-49.5C484.4,235.2,462.1,231.4,442.4,231.4z"/>
		<ellipse id="XMLID_47_" class="st4" cx="434.6" cy="247.1" rx="42.8" ry="10.7"/>
	</g>
</g>
<g>
	<ellipse class="st2" cx="434.2" cy="170.6" rx="49.5" ry="13.1"/>
	<path class="st5" d="M467.9,107L467.9,107c-2.8-0.8-4.3-3.7-3.5-6.3l17.1-59.3c0.8-2.8,3.7-4.3,6.3-3.5l0,0
		c2.8,0.8,4.3,3.7,3.5,6.3l-17.1,59.3C473.4,106.3,470.5,107.8,467.9,107z"/>
	<path id="XMLID_1_" class="st3" d="M441.9,83.2h-15.3c-19.4,0-41.4,4.2-41.4,20.4v31.7c0,19.4,25.1,35.3,44.5,35.3h9.1
		c19.4,0,44.5-15.9,44.5-35.3v-31.7C483.3,87,461.3,83.2,441.9,83.2z"/>
	<path class="st6" d="M477.9,92.6c0,23.9-19.4,27.1-43.2,27.1c-23.9,0-43.2-3.2-43.2-27.1s19.4-43.2,43.2-43.2
		C458.5,49.3,477.9,68.6,477.9,92.6z"/>
	<path class="st6" d="M404.4,113.5c4-4,1.2-7.6-2.7-11.5c-4-4-7.6-6.6-11.5-2.7c-4,4-4,10.3,0,14.2
		C394.1,117.5,400.6,117.5,404.4,113.5z"/>
	<path class="st6" d="M464,113.5c-4-4-1.2-7.6,2.7-11.5c4-4,7.6-6.6,11.5-2.7c4,4,4,10.3,0,14.2C474.3,117.5,468,117.5,464,113.5z"
		/>
	<path class="st6" d="M424.1,117.5c0-5.5,4.5-6.3,10.1-6.3s10.1,0.7,10.1,6.3c0,5.5-4.5,10.1-10.1,10.1
		C428.6,127.6,424.1,123,424.1,117.5z"/>
	<path class="st6" d="M404.2,112.8c1.1-5.4,5.7-5.2,11.1-4.1s9.7,2.8,8.6,8.3c-1.1,5.4-6.4,8.9-11.9,7.8
		C406.6,123.5,403.1,118.2,404.2,112.8z"/>
	<path class="st6" d="M464.4,112.8c-1.1-5.4-5.7-5.2-11.1-4.1s-9.7,2.8-8.6,8.3c1.1,5.4,6.4,8.9,11.9,7.8
		C462.1,123.5,465.5,118.2,464.4,112.8z"/>
</g>
<g>
	<ellipse class="st2" cx="170.7" cy="332.9" rx="77.4" ry="18.8"/>
	<path class="st7" d="M248.1,291.8c0,7.6-0.4,20.7-8.8,29.8c-14.3,15.4-39.7,16.6-67.5,16.6c-27,0-55.5-0.5-69.9-15.4
		c-9.1-9.4-8.2-23.1-8.2-31c0-20.7,34-37.4,78-37.4S248.1,271.2,248.1,291.8z"/>
	<path class="st1" d="M170.8,253.7c-34.9,0-67.5,10.6-67.5,26.9s32.7,32.3,67.5,32.3c34.9,0,68.4-15.9,68.4-32.3
		C239.2,264.2,205.6,253.7,170.8,253.7z M171.9,290.2c-9.9,0-17.9-3.1-17.9-6.8c0-3.7,8-6.8,17.9-6.8s17.8,3.1,17.8,6.8
		C189.6,287.1,181.7,290.2,171.9,290.2z"/>
	<path class="st1" d="M117.5,293.3c4.2-4.2,1.3-8.1-2.9-12.2c-4.2-4.1-8.1-6.9-12.2-2.9c-4.2,4.1-4.2,10.9,0,15
		C106.6,297.4,113.3,297.4,117.5,293.3z"/>
	<path class="st1" d="M224.4,294.3c-4.2-4.2-1.3-8.1,2.9-12.2c4.2-4.1,8.1-6.9,12.2-2.9c4.2,4.2,4.2,10.9,0,15
		C235.2,298.3,228.5,298.3,224.4,294.3z"/>
	<path class="st1" d="M159.7,311.8c0-5.9,4.8-6.6,10.6-6.6c5.9,0,10.6,0.8,10.6,6.6c0,5.9-4.8,10.6-10.6,10.6c-2.8,0-5.2-1-7.1-2.8
		C161.1,317.7,159.7,315,159.7,311.8z"/>
	<path class="st1" d="M142.8,306.6c1.2-5.7,6-5.5,11.8-4.3c5.7,1.2,10.2,3,9,8.8c-1.2,5.7-6.8,9.4-12.6,8.2
		c-2.7-0.6-4.9-2.1-6.4-4.2C142.8,312.7,142.1,309.7,142.8,306.6z"/>
	<path class="st1" d="M197.1,306.6c-1.2-5.7-6-5.5-11.8-4.3c-5.7,1.2-10.2,3-9,8.8c1.2,5.7,6.8,9.4,12.6,8.2
		c2.7-0.6,4.9-2.1,6.4-4.2C197.1,312.7,197.8,309.7,197.1,306.6z"/>
	<path class="st1" d="M126.7,302.3c1.2-5.7,6-5.5,11.7-4.4c5.7,1.2,10.2,3,9.1,8.7c-1.2,5.7-6.8,9.5-12.5,8.3
		C129.2,313.7,125.5,308.1,126.7,302.3z"/>
	<path class="st1" d="M214.8,302.3c-1.2-5.7-6-5.5-11.7-4.4c-5.7,1.2-10.2,3-9.1,8.7c1.2,5.7,6.8,9.5,12.5,8.3
		S216.1,308.1,214.8,302.3z"/>
	<path class="st6" d="M206.5,275.7l-12.2-6.5c-1-0.5-1.3-1.7-0.8-2.8l0,0c0.5-1,1.7-1.3,2.8-0.8l12.2,6.5c1,0.5,1.3,1.7,0.8,2.8l0,0
		C208.7,275.9,207.5,276.3,206.5,275.7z"/>
	<path class="st6" d="M146.9,273.3l-12.2-6.5c-1-0.5-1.3-1.7-0.8-2.8l0,0c0.5-1,1.7-1.3,2.8-0.8l12.2,6.5c1,0.5,1.3,1.7,0.8,2.8l0,0
		C149.1,273.5,147.9,273.8,146.9,273.3z"/>
	<path class="st6" d="M180.4,306.7l-12.2-6.5c-1-0.5-1.3-1.7-0.8-2.8l0,0c0.5-1,1.7-1.3,2.8-0.8l12.2,6.5c1,0.5,1.3,1.7,0.8,2.8l0,0
		C182.6,306.8,181.3,307.2,180.4,306.7z"/>
	<circle class="st5" cx="171.3" cy="265.4" r="2.5"/>
	<circle class="st5" cx="144.3" cy="284.6" r="2.5"/>
	<circle class="st5" cx="220.2" cy="278.6" r="2.5"/>
	<path class="st1" d="M230.2,292.8c-2.4-5.3-7.1-4.1-12.4-1.6c-5.3,2.4-9.4,5.1-6.9,10.5c2.4,5.4,8.8,7.6,14.1,5.3
		C230.3,304.5,232.7,298.2,230.2,292.8z"/>
	<path class="st1" d="M111.6,292.8c2.4-5.3,7.1-4.1,12.4-1.6c5.3,2.4,9.4,5.1,6.9,10.5c-2.4,5.3-8.8,7.6-14.1,5.3
		C111.5,304.5,109.2,298.2,111.6,292.8z"/>
	<path class="st6" d="M214.6,295l-12.2-6.5c-1-0.5-1.3-1.7-0.8-2.8l0,0c0.5-1,1.7-1.3,2.8-0.8l12.2,6.5c1,0.5,1.3,1.7,0.8,2.8l0,0
		C216.9,295.2,215.6,295.5,214.6,295z"/>
	<circle class="st5" cx="194.3" cy="296.3" r="2.5"/>
	<circle class="st5" cx="151.4" cy="300.8" r="2.5"/>
	<path class="st6" d="M126.7,292.3l-12.2-6.5c-1-0.5-1.3-1.7-0.8-2.8l0,0c0.5-1,1.7-1.3,2.8-0.8l12.2,6.5c1,0.5,1.3,1.7,0.8,2.8l0,0
		C128.9,292.4,127.7,292.8,126.7,292.3z"/>
</g>
</svg>
